<svg xmlns="http://www.w3.org/2000/svg" xmlns:xlink="http://www.w3.org/1999/xlink" id="Capa_1" x="0px" y="0px" viewBox="0 0 138 113.2" style="enable-background:new 0 0 138 113.2;" xml:space="preserve"><style type="text/css">	.st0{fill:#FF921E;}</style><g>	<path class="st0" d="M9.3,33.5c0,10.4,7,13.3,13.8,15.5c7.4,2.4,12.4,3.3,12.4,7.7c0,2.8-1.9,5.4-6.9,5.4c-6.7,0-10.9-3.3-14.1-3.3  c-4,0-6.1,3.4-6.1,6.9c0,6.5,11.6,9.4,19.3,9.4c12.2,0,22-6,22-19.2c0-10.9-6.9-14.5-14-16.9c-9-3-12.3-3.4-12.3-6.7  c0-2.8,2.4-4.7,6-4.7c5.6,0,6.9,2.2,11.1,2.2c3.5,0,5.8-2.6,5.8-6.1c0-5-5.8-8.6-16.3-8.6S9.3,21,9.3,33.5 M109.6,8.1v7.7H96  c-0.6,0-1.2,0.1-1.7,0.1c-3.2,0.4-5.5,2.7-5.5,6.9v27.9c0,7.7-5.4,11.8-11.9,11.8c-6.5,0-11.8-4.1-11.8-11.8V22.9  c0-4.6-2.7-6.9-6.5-6.9S52,18.3,52,22.9v27.9C52,66,62.4,75.2,76.9,75.2s24.9-9.2,24.9-24.4V29.4h-5.3c-3.9,0-6.5-2.8-6.5-6.1  c0-0.2,0-0.4,0-0.6c0.1-1.2,0.4-2.2,0.9-2.9c0,0,0,0,0,0c0.1-0.1,0.1-0.2,0.2-0.3c0.1-0.1,0.1-0.2,0.2-0.2c0,0,0,0,0.1-0.1  c0.5-0.5,1.1-1,1.7-1.3c0.1-0.1,0.2-0.1,0.4-0.2c0,0,0,0,0,0c0.7-0.3,1.5-0.4,2.4-0.4c3.4,0,5.9,2.1,5.9,6.3v5.8h7.7v7.7  c0,4.2,2.4,7.2,6.8,7.2c4.4,0,6.8-3,6.8-7.2v-7.7h7.7c4.3,0,7.2-2.5,7.2-6.8s-2.9-6.8-7.2-6.8h-7.7V8.1c0-4.2-2.4-7.2-6.8-7.2  C111.9,1,109.6,3.9,109.6,8.1"></path>	<g>		<path class="st0" d="M0.6,110.5l1.1-1.5c1.4,1.2,2.9,1.8,4.4,1.8c1.7,0,2.8-0.9,2.8-2.3v0c0-1.3-1.2-2-3.3-2.9   c-2.4-1-4.3-2-4.3-4.3v-0.1c0-2.5,2-4.1,4.7-4.1c1.7,0,3.5,0.7,4.7,1.6l-1,1.6c-1.2-0.8-2.5-1.4-3.8-1.4c-1.6,0-2.6,0.9-2.6,2.1   v0.1c0,1.3,1.3,1.9,3.4,2.8c2.5,1.1,4.2,2.1,4.2,4.4v0.1c0,2.7-2.2,4.3-4.9,4.3C4.2,112.7,2.2,111.9,0.6,110.5L0.6,110.5z"></path>		<path class="st0" d="M27.1,107.2v-9.9h2.1v9.3c0,2.7,1.3,4.2,3.5,4.2s3.8-1.7,3.8-4.3v-9.2h2.1v15.1h-2.1v-2.5   c-0.8,1.5-2.2,2.7-4.5,2.7C29,112.7,27.1,110.6,27.1,107.2L27.1,107.2z"></path>		<path class="st0" d="M55.9,97.3H58v2.4c0.8-1.4,2.1-2.7,4.2-2.7c2,0,3.4,1.1,4.2,2.7c0.9-1.5,2.3-2.7,4.6-2.7c2.9,0,4.8,2,4.8,5.5   v9.8h-2.1v-9.3c0-2.7-1.2-4.2-3.3-4.2c-2.1,0-3.6,1.6-3.6,4.3v9.2h-2.1v-9.3c0-2.7-1.2-4.2-3.3-4.2c-2.1,0-3.6,1.8-3.6,4.3v9.2   h-2.1L55.9,97.3L55.9,97.3z"></path>		<path class="st0" d="M92,108v-0.1c0-3.1,2.2-4.9,5.6-4.9c1.6,0,2.7,0.3,3.9,0.6v-0.9c0-2.4-1.4-3.7-3.9-3.7c-1.5,0-2.8,0.5-3.9,1   l-0.7-1.7c1.4-0.7,2.9-1.2,4.7-1.2s3.2,0.5,4.2,1.5c0.9,0.9,1.5,2.3,1.5,4.1v9.7h-2.1v-2.2c-0.9,1.4-2.4,2.5-4.6,2.5   C94.3,112.7,92,111,92,108L92,108z M101.5,107.1v-1.9c-1-0.3-2.2-0.6-3.7-0.6c-2.4,0-3.7,1.2-3.7,3.2v0.1c0,1.9,1.4,3.1,3.2,3.1   C99.7,111,101.5,109.3,101.5,107.1z"></path>		<path class="st0" d="M119.3,110.5l1.1-1.5c1.4,1.2,2.9,1.8,4.4,1.8c1.7,0,2.8-0.9,2.8-2.3v0c0-1.3-1.2-2-3.3-2.9   c-2.4-1-4.3-2-4.3-4.3v-0.1c0-2.5,2-4.1,4.7-4.1c1.7,0,3.5,0.7,4.7,1.6l-1,1.6c-1.2-0.8-2.5-1.4-3.8-1.4c-1.6,0-2.6,0.9-2.6,2.1   v0.1c0,1.3,1.3,1.9,3.4,2.8c2.5,1.1,4.2,2.1,4.2,4.4v0.1c0,2.7-2.2,4.3-4.9,4.3C122.9,112.7,120.9,111.9,119.3,110.5L119.3,110.5z   "></path>	</g></g></svg>